<mxfile host="app.diagrams.net" modified="2023-04-28T14:50:36.138Z" agent="Mozilla/5.0 (Windows NT 10.0; Win64; x64) AppleWebKit/537.36 (KHTML, like Gecko) Chrome/112.0.0.0 Safari/537.36" etag="V1RVBHyMwqHq84gqdQWj" version="21.2.3" type="github">
  <diagram name="Page-1" id="Kp3LggTJVTYBtFRizFHG">
    <mxGraphModel dx="880" dy="465" grid="1" gridSize="10" guides="1" tooltips="1" connect="1" arrows="1" fold="1" page="1" pageScale="1" pageWidth="850" pageHeight="1100" math="0" shadow="0">
      <root>
        <mxCell id="0" />
        <mxCell id="1" parent="0" />
        <mxCell id="ysEN2H4yCYyWhUY970qx-1" value="Search Bar" style="rounded=0;whiteSpace=wrap;html=1;" vertex="1" parent="1">
          <mxGeometry x="140" y="50" width="120" height="60" as="geometry" />
        </mxCell>
        <mxCell id="ysEN2H4yCYyWhUY970qx-2" value="URLS" style="rounded=0;whiteSpace=wrap;html=1;" vertex="1" parent="1">
          <mxGeometry x="140" y="280" width="120" height="60" as="geometry" />
        </mxCell>
        <mxCell id="ysEN2H4yCYyWhUY970qx-3" value="VIEWS" style="rounded=0;whiteSpace=wrap;html=1;" vertex="1" parent="1">
          <mxGeometry x="450" y="280" width="120" height="60" as="geometry" />
        </mxCell>
        <mxCell id="ysEN2H4yCYyWhUY970qx-4" value="TEMPLATE" style="rounded=0;whiteSpace=wrap;html=1;" vertex="1" parent="1">
          <mxGeometry x="450" y="50" width="120" height="60" as="geometry" />
        </mxCell>
        <mxCell id="ysEN2H4yCYyWhUY970qx-5" value="Request" style="endArrow=classic;html=1;rounded=0;exitX=0.5;exitY=1;exitDx=0;exitDy=0;entryX=0.5;entryY=0;entryDx=0;entryDy=0;" edge="1" parent="1" source="ysEN2H4yCYyWhUY970qx-1" target="ysEN2H4yCYyWhUY970qx-2">
          <mxGeometry width="50" height="50" relative="1" as="geometry">
            <mxPoint x="400" y="300" as="sourcePoint" />
            <mxPoint x="450" y="250" as="targetPoint" />
          </mxGeometry>
        </mxCell>
        <mxCell id="ysEN2H4yCYyWhUY970qx-6" value="" style="endArrow=classic;html=1;rounded=0;entryX=0;entryY=0.5;entryDx=0;entryDy=0;exitX=1;exitY=0.5;exitDx=0;exitDy=0;" edge="1" parent="1" source="ysEN2H4yCYyWhUY970qx-2" target="ysEN2H4yCYyWhUY970qx-3">
          <mxGeometry width="50" height="50" relative="1" as="geometry">
            <mxPoint x="270" y="320" as="sourcePoint" />
            <mxPoint x="277" y="486" as="targetPoint" />
          </mxGeometry>
        </mxCell>
        <mxCell id="ysEN2H4yCYyWhUY970qx-7" value="" style="endArrow=classic;html=1;rounded=0;exitX=0.583;exitY=-0.067;exitDx=0;exitDy=0;exitPerimeter=0;entryX=0.575;entryY=1;entryDx=0;entryDy=0;entryPerimeter=0;" edge="1" parent="1" source="ysEN2H4yCYyWhUY970qx-3" target="ysEN2H4yCYyWhUY970qx-4">
          <mxGeometry width="50" height="50" relative="1" as="geometry">
            <mxPoint x="480" y="230" as="sourcePoint" />
            <mxPoint x="530" y="180" as="targetPoint" />
          </mxGeometry>
        </mxCell>
        <mxCell id="ysEN2H4yCYyWhUY970qx-8" value="Response" style="endArrow=classic;html=1;rounded=0;exitX=0;exitY=0.5;exitDx=0;exitDy=0;entryX=1;entryY=0.5;entryDx=0;entryDy=0;" edge="1" parent="1" source="ysEN2H4yCYyWhUY970qx-4" target="ysEN2H4yCYyWhUY970qx-1">
          <mxGeometry width="50" height="50" relative="1" as="geometry">
            <mxPoint x="350" y="100" as="sourcePoint" />
            <mxPoint x="400" y="50" as="targetPoint" />
            <Array as="points" />
          </mxGeometry>
        </mxCell>
      </root>
    </mxGraphModel>
  </diagram>
</mxfile>
